<svg width="352" height="70" viewBox="0 0 352 70" fill="none" xmlns="http://www.w3.org/2000/svg">
<path fill-rule="evenodd" clip-rule="evenodd" d="M275 30C277.152 30 279.039 31.1329 280.098 32.8349L351.165 0.182617L352 1.99997L280.856 34.6877C280.95 35.1101 281 35.5492 281 36C281 39.3137 278.314 42 275 42C271.686 42 269 39.3137 269 36C269 35.1676 269.169 34.3748 269.476 33.6542L222.82 9.46248C222.168 12.0693 219.809 14 217 14C213.686 14 211 11.3137 211 8C211 4.68629 213.686 2 217 2C220.07 2 222.602 4.30604 222.957 7.28054L270.561 31.9637C271.658 30.7573 273.241 30 275 30ZM127.968 63.3776L211 9.99998L209.918 8.31763L127.394 61.3691C126.419 59.3741 124.37 58 122 58C120.071 58 118.355 58.9103 117.257 60.3248L68.9573 35.2805C68.6019 32.306 66.0702 30 63 30C59.6863 30 57 32.6863 57 36C57 39.3137 59.6863 42 63 42C65.8092 42 68.1676 40.0693 68.8205 37.4625L116.311 62.0873C116.109 62.6881 116 63.3313 116 64C116 67.3137 118.686 70 122 70C125.314 70 128 67.3137 128 64C128 63.7898 127.989 63.5822 127.968 63.3776ZM57 38L1.99999 70L0.994202 68.2713L55.9942 36.2713L57 38Z" fill="#848DA4"/>
</svg>
